<?xml version="1.0" encoding="UTF-8"?>
<svg id="Camada_1" xmlns="http://www.w3.org/2000/svg" version="1.1" viewBox="452 272 286 300">
  <!-- Generator: Adobe Illustrator 30.2.1, SVG Export Plug-In . SVG Version: 2.1.1 Build 1)  -->
  <g id="_x33_RVLV9">
    <g>
      <path d="M698.36,372.67c14.54-.17,25.22-12.92,25.08-26.72l-179.54-.04c-7.52,0-14.88,4.5-14.89,12.72l-.16,123.83c-.03,20.94-14.18,38.65-33.97,44.75l.1-139.58c.02-29.68,18.7-55.56,43.17-67.62,28-13.81,59.54-9.83,83.49,8.78l36.6-.13c-27.38-37.72-74.73-52.82-118.56-38.36-40.91,13.49-71.57,52.41-71.62,97.34l-.18,154.79c0,7.44,5.59,13.57,13.07,13.63,40.77.3,74.77-32.46,74.81-73.64l.12-109.47,93.21-.03c5.37,24.16-.44,48.35-16.44,67.46-14.22,16.99-35.92,27.73-59.66,27.8l-.1,26.8c64.63.22,114.2-57.93,103.82-122.04l21.65-.25ZM606.74,433.89c14.56-.06,26.44-11.92,26.4-26.79l-60.08-.07.08,26.99,33.6-.13Z"/>
      <path d="M698.36,372.67l-21.65.25c10.38,64.11-39.18,122.26-103.82,122.04l.1-26.8c23.74-.07,45.44-10.81,59.66-27.8,15.99-19.11,21.8-43.3,16.44-67.46l-93.21.03-.12,109.47c-.04,41.18-34.04,73.94-74.81,73.64-7.48-.05-13.08-6.19-13.07-13.63l.18-154.79c.05-44.93,30.72-83.84,71.62-97.34,43.83-14.46,91.18.63,118.56,38.36l-36.6.13c-23.96-18.6-55.5-22.58-83.49-8.78-24.47,12.07-43.15,37.95-43.17,67.62l-.1,139.58c19.79-6.1,33.94-23.81,33.97-44.75l.16-123.83c.01-8.21,7.37-12.72,14.89-12.72l179.54.04c.14,13.79-10.54,26.55-25.08,26.72Z"/>
      <path d="M606.74,433.89l-33.6.13-.08-26.99,60.08.07c.04,14.87-11.83,26.74-26.4,26.79Z"/>
    </g>
  </g>
</svg>
